<?xml version="1.0" encoding="UTF-8"?> <svg xmlns="http://www.w3.org/2000/svg" width="120" height="120" viewBox="0 0 120 120" fill="none"><path d="M0 20C0 8.95431 8.95431 0 20 0H100C111.046 0 120 8.95431 120 20V100C120 111.046 111.046 120 100 120H20C8.95431 120 0 111.046 0 100V20Z" fill="#F4F4F4"></path><path d="M57.728 82.016C59.4054 82.016 61.2307 81.868 63.204 81.572C65.276 81.1773 66.8054 80.684 67.792 80.092V68.252L57.136 69.14C54.3734 69.3373 52.104 69.9293 50.328 70.916C48.552 71.9027 47.664 73.3827 47.664 75.356C47.664 77.3293 48.404 78.9573 49.884 80.24C51.4627 81.424 54.0774 82.016 57.728 82.016ZM56.544 23.852C61.872 23.852 66.7067 24.3947 71.0481 25.48C75.488 26.5653 79.2374 28.2427 82.2961 30.512C85.4534 32.6827 87.8707 35.4947 89.5481 38.948C91.2254 42.3027 92.064 46.2987 92.064 50.936V84.088C92.064 86.6533 91.324 88.7747 89.8441 90.452C88.4627 92.0307 86.7854 93.412 84.812 94.596C78.3987 98.444 69.3707 100.368 57.728 100.368C52.4987 100.368 47.7627 99.8747 43.52 98.888C39.376 97.9013 35.7747 96.4213 32.716 94.448C29.756 92.4747 27.4374 89.9587 25.76 86.9C24.1814 83.8413 23.392 80.2893 23.392 76.244C23.392 69.436 25.4147 64.2067 29.46 60.556C33.5054 56.9053 39.7707 54.636 48.256 53.748L67.6441 51.676V50.64C67.6441 47.7787 66.3614 45.756 63.7961 44.572C61.3294 43.2893 57.728 42.648 52.992 42.648C49.2427 42.648 45.592 43.0427 42.04 43.832C38.488 44.6213 35.2814 45.608 32.42 46.792C31.1374 45.904 30.052 44.572 29.164 42.796C28.276 40.9213 27.832 38.9973 27.832 37.024C27.832 34.4587 28.424 32.436 29.608 30.956C30.8907 29.3773 32.8147 28.0453 35.38 26.96C38.2414 25.8747 41.596 25.0853 45.444 24.592C49.3907 24.0987 53.0907 23.852 56.544 23.852Z" fill="url(#paint0_linear_24243_16)"></path><defs><linearGradient id="paint0_linear_24243_16" x1="59.5" y1="27" x2="59.5" y2="92" gradientUnits="userSpaceOnUse"><stop stop-color="#AF2BFF"></stop><stop offset="0.0001" stop-color="#AF2BFF"></stop><stop offset="0.45966" stop-color="#8E52FF"></stop><stop offset="1" stop-color="#2AC9FD"></stop><stop offset="1" stop-color="#2AC9FD"></stop></linearGradient></defs></svg> 