<svg width="2725" height="531" viewBox="0 0 2725 531" fill="none" xmlns="http://www.w3.org/2000/svg">
<rect x="15" y="15" width="2695" height="501" rx="48" stroke="#747474" stroke-width="30"/>
<path d="M188.797 353.362V302.794H196.908C199.631 300.953 202.124 298.384 204.387 295.085C206.65 291.749 208.587 287.07 210.197 281.048C211.808 274.989 212.959 266.992 213.649 257.059L217.331 207.182H297.928V302.794H310.585V353.304H283.201V325H216.18V353.362H188.797ZM229.585 302.794H270.545V230.308H242.874L241.033 257.059C240.534 264.538 239.729 271.134 238.616 276.849C237.504 282.563 236.181 287.549 234.647 291.806C233.113 296.025 231.425 299.687 229.585 302.794ZM442.946 266.091C442.946 279.054 440.453 290.042 435.467 299.055C430.481 308.067 423.731 314.913 415.217 319.592C406.741 324.271 397.23 326.611 386.683 326.611C376.098 326.611 366.567 324.252 358.091 319.535C349.616 314.817 342.885 307.972 337.899 298.997C332.952 289.984 330.478 279.016 330.478 266.091C330.478 253.128 332.952 242.14 337.899 233.127C342.885 224.114 349.616 217.268 358.091 212.589C366.567 207.911 376.098 205.571 386.683 205.571C397.23 205.571 406.741 207.911 415.217 212.589C423.731 217.268 430.481 224.114 435.467 233.127C440.453 242.14 442.946 253.128 442.946 266.091ZM413.837 266.091C413.837 258.42 412.743 251.939 410.557 246.646C408.41 241.354 405.303 237.346 401.238 234.623C397.211 231.9 392.359 230.538 386.683 230.538C381.045 230.538 376.194 231.9 372.128 234.623C368.063 237.346 364.937 241.354 362.751 246.646C360.604 251.939 359.53 258.42 359.53 266.091C359.53 273.761 360.604 280.243 362.751 285.536C364.937 290.828 368.063 294.836 372.128 297.559C376.194 300.282 381.045 301.643 386.683 301.643C392.359 301.643 397.211 300.282 401.238 297.559C405.303 294.836 408.41 290.828 410.557 285.536C412.743 280.243 413.837 273.761 413.837 266.091ZM574.617 249.868H545.853C545.469 246.915 544.683 244.249 543.494 241.871C542.305 239.494 540.733 237.461 538.777 235.773C536.821 234.086 534.5 232.801 531.816 231.919C529.169 230.999 526.236 230.538 523.014 230.538C517.299 230.538 512.371 231.938 508.229 234.738C504.125 237.538 500.961 241.584 498.737 246.876C496.551 252.169 495.458 258.574 495.458 266.091C495.458 273.915 496.57 280.473 498.794 285.766C501.057 291.02 504.221 294.989 508.287 297.674C512.39 300.32 517.242 301.643 522.841 301.643C525.986 301.643 528.843 301.241 531.413 300.435C534.021 299.63 536.303 298.46 538.259 296.926C540.253 295.354 541.883 293.455 543.149 291.231C544.453 288.968 545.354 286.418 545.853 283.58L574.617 283.752C574.118 288.968 572.603 294.107 570.072 299.17C567.579 304.232 564.147 308.854 559.775 313.034C555.402 317.176 550.071 320.474 543.782 322.929C537.53 325.384 530.358 326.611 522.266 326.611C511.604 326.611 502.054 324.271 493.617 319.592C485.218 314.875 478.583 308.01 473.712 298.997C468.841 289.984 466.406 279.016 466.406 266.091C466.406 253.128 468.88 242.14 473.827 233.127C478.775 224.114 485.467 217.268 493.905 212.589C502.342 207.911 511.796 205.571 522.266 205.571C529.4 205.571 535.996 206.568 542.056 208.562C548.115 210.518 553.446 213.395 558.049 217.192C562.651 220.95 566.39 225.572 569.267 231.056C572.143 236.54 573.927 242.811 574.617 249.868ZM595.157 230.308V207.182H694.739V230.308H659.014V325H630.94V230.308H595.157ZM731.646 326.611V304.06H737.687C740.947 304.06 743.555 303.734 745.511 303.082C747.505 302.391 749.058 301.298 750.171 299.803C751.321 298.307 752.28 296.312 753.047 293.82L754.37 290.195L710.879 207.182H740.103L766.279 260.108L787.334 207.182H816.098L775.598 300.55C773.489 305.153 770.996 309.448 768.119 313.437C765.243 317.387 761.619 320.57 757.247 322.987C752.913 325.403 747.448 326.611 740.851 326.611H731.646ZM940.406 207.182V325H912.332V229.963H868.61V325H840.536V207.182H940.406ZM970.568 325V207.182H999.044V254.47H1045.47V207.182H1073.89V325H1045.47V277.654H999.044V325H970.568ZM1211.05 266.091C1211.05 279.054 1208.56 290.042 1203.58 299.055C1198.59 308.067 1191.84 314.913 1183.33 319.592C1174.85 324.271 1165.34 326.611 1154.79 326.611C1144.21 326.611 1134.68 324.252 1126.2 319.535C1117.72 314.817 1110.99 307.972 1106.01 298.997C1101.06 289.984 1098.59 279.016 1098.59 266.091C1098.59 253.128 1101.06 242.14 1106.01 233.127C1110.99 224.114 1117.72 217.268 1126.2 212.589C1134.68 207.911 1144.21 205.571 1154.79 205.571C1165.34 205.571 1174.85 207.911 1183.33 212.589C1191.84 217.268 1198.59 224.114 1203.58 233.127C1208.56 242.14 1211.05 253.128 1211.05 266.091ZM1181.94 266.091C1181.94 258.42 1180.85 251.939 1178.67 246.646C1176.52 241.354 1173.41 237.346 1169.35 234.623C1165.32 231.9 1160.47 230.538 1154.79 230.538C1149.15 230.538 1144.3 231.9 1140.24 234.623C1136.17 237.346 1133.05 241.354 1130.86 246.646C1128.71 251.939 1127.64 258.42 1127.64 266.091C1127.64 273.761 1128.71 280.243 1130.86 285.536C1133.05 290.828 1136.17 294.836 1140.24 297.559C1144.3 300.282 1149.15 301.643 1154.79 301.643C1160.47 301.643 1165.32 300.282 1169.35 297.559C1173.41 294.836 1176.52 290.828 1178.67 285.536C1180.85 280.243 1181.94 273.761 1181.94 266.091ZM1278.68 325V207.182H1327.81C1336.63 207.182 1344.02 208.428 1349.96 210.921C1355.94 213.414 1360.43 216.904 1363.42 221.391C1366.45 225.879 1367.97 231.075 1367.97 236.982C1367.97 241.469 1367.03 245.477 1365.15 249.005C1363.27 252.495 1360.68 255.391 1357.38 257.692C1354.08 259.993 1350.27 261.604 1345.93 262.524V263.675C1350.69 263.905 1355.08 265.19 1359.11 267.529C1363.17 269.869 1366.43 273.129 1368.89 277.309C1371.34 281.451 1372.57 286.36 1372.57 292.036C1372.57 298.364 1370.96 304.021 1367.74 309.007C1364.52 313.955 1359.86 317.866 1353.76 320.743C1347.66 323.581 1340.26 325 1331.55 325H1278.68ZM1307.16 302.046H1324.76C1330.94 302.046 1335.48 300.876 1338.4 298.537C1341.35 296.197 1342.83 292.938 1342.83 288.757C1342.83 285.727 1342.12 283.119 1340.7 280.933C1339.28 278.709 1337.27 277.002 1334.66 275.813C1332.05 274.586 1328.93 273.972 1325.28 273.972H1307.16V302.046ZM1307.16 255.621H1322.92C1326.03 255.621 1328.79 255.103 1331.21 254.067C1333.62 253.032 1335.5 251.536 1336.85 249.58C1338.23 247.624 1338.92 245.266 1338.92 242.504C1338.92 238.554 1337.52 235.447 1334.72 233.185C1331.92 230.922 1328.14 229.79 1323.38 229.79H1307.16V255.621ZM1437.27 325V207.182H1485.94C1494.76 207.182 1502.37 208.908 1508.77 212.359C1515.22 215.773 1520.18 220.548 1523.67 226.684C1527.16 232.782 1528.91 239.877 1528.91 247.969C1528.91 256.1 1527.13 263.214 1523.56 269.312C1520.03 275.372 1514.99 280.07 1508.43 283.407C1501.87 286.744 1494.09 288.412 1485.07 288.412H1455.04V265.976H1479.78C1484.08 265.976 1487.66 265.228 1490.54 263.732C1493.45 262.237 1495.66 260.146 1497.15 257.462C1498.65 254.739 1499.4 251.575 1499.4 247.969C1499.4 244.326 1498.65 241.181 1497.15 238.535C1495.66 235.85 1493.45 233.779 1490.54 232.322C1487.62 230.864 1484.04 230.136 1479.78 230.136H1465.74V325H1437.27ZM1562.29 325H1531.69L1571.44 207.182H1609.35L1649.1 325H1618.5L1590.83 236.866H1589.91L1562.29 325ZM1558.21 278.632H1622.18V300.263H1558.21V278.632ZM1771.3 249.868H1742.53C1742.15 246.915 1741.36 244.249 1740.17 241.871C1738.99 239.494 1737.41 237.461 1735.46 235.773C1733.5 234.086 1731.18 232.801 1728.5 231.919C1725.85 230.999 1722.92 230.538 1719.69 230.538C1713.98 230.538 1709.05 231.938 1704.91 234.738C1700.81 237.538 1697.64 241.584 1695.42 246.876C1693.23 252.169 1692.14 258.574 1692.14 266.091C1692.14 273.915 1693.25 280.473 1695.47 285.766C1697.74 291.02 1700.9 294.989 1704.97 297.674C1709.07 300.32 1713.92 301.643 1719.52 301.643C1722.67 301.643 1725.52 301.241 1728.09 300.435C1730.7 299.63 1732.98 298.46 1734.94 296.926C1736.93 295.354 1738.56 293.455 1739.83 291.231C1741.13 288.968 1742.03 286.418 1742.53 283.58L1771.3 283.752C1770.8 288.968 1769.28 294.107 1766.75 299.17C1764.26 304.232 1760.83 308.854 1756.45 313.034C1752.08 317.176 1746.75 320.474 1740.46 322.929C1734.21 325.384 1727.04 326.611 1718.95 326.611C1708.28 326.611 1698.73 324.271 1690.3 319.592C1681.9 314.875 1675.26 308.01 1670.39 298.997C1665.52 289.984 1663.09 279.016 1663.09 266.091C1663.09 253.128 1665.56 242.14 1670.51 233.127C1675.45 224.114 1682.15 217.268 1690.58 212.589C1699.02 207.911 1708.48 205.571 1718.95 205.571C1726.08 205.571 1732.68 206.568 1738.74 208.562C1744.8 210.518 1750.13 213.395 1754.73 217.192C1759.33 220.95 1763.07 225.572 1765.95 231.056C1768.82 236.54 1770.61 242.811 1771.3 249.868ZM1902.64 249.868H1873.87C1873.49 246.915 1872.7 244.249 1871.51 241.871C1870.33 239.494 1868.75 237.461 1866.8 235.773C1864.84 234.086 1862.52 232.801 1859.84 231.919C1857.19 230.999 1854.26 230.538 1851.03 230.538C1845.32 230.538 1840.39 231.938 1836.25 234.738C1832.15 237.538 1828.98 241.584 1826.76 246.876C1824.57 252.169 1823.48 258.574 1823.48 266.091C1823.48 273.915 1824.59 280.473 1826.81 285.766C1829.08 291.02 1832.24 294.989 1836.31 297.674C1840.41 300.32 1845.26 301.643 1850.86 301.643C1854.01 301.643 1856.86 301.241 1859.43 300.435C1862.04 299.63 1864.32 298.46 1866.28 296.926C1868.27 295.354 1869.9 293.455 1871.17 291.231C1872.47 288.968 1873.37 286.418 1873.87 283.58L1902.64 283.752C1902.14 288.968 1900.62 294.107 1898.09 299.17C1895.6 304.232 1892.17 308.854 1887.79 313.034C1883.42 317.176 1878.09 320.474 1871.8 322.929C1865.55 325.384 1858.38 326.611 1850.29 326.611C1839.62 326.611 1830.07 324.271 1821.64 319.592C1813.24 314.875 1806.6 308.01 1801.73 298.997C1796.86 289.984 1794.43 279.016 1794.43 266.091C1794.43 253.128 1796.9 242.14 1801.85 233.127C1806.79 224.114 1813.49 217.268 1821.92 212.589C1830.36 207.911 1839.82 205.571 1850.29 205.571C1857.42 205.571 1864.02 206.568 1870.08 208.562C1876.14 210.518 1881.47 213.395 1886.07 217.192C1890.67 220.95 1894.41 225.572 1897.29 231.056C1900.16 236.54 1901.95 242.811 1902.64 249.868ZM1927.03 325V207.182H1975.7C1984.52 207.182 1992.14 208.908 1998.54 212.359C2004.98 215.773 2009.95 220.548 2013.44 226.684C2016.93 232.782 2018.67 239.877 2018.67 247.969C2018.67 256.1 2016.89 263.214 2013.32 269.312C2009.8 275.372 2004.75 280.07 1998.19 283.407C1991.64 286.744 1983.85 288.412 1974.84 288.412H1944.81V265.976H1969.55C1973.84 265.976 1977.43 265.228 1980.3 263.732C1983.22 262.237 1985.42 260.146 1986.92 257.462C1988.41 254.739 1989.16 251.575 1989.16 247.969C1989.16 244.326 1988.41 241.181 1986.92 238.535C1985.42 235.85 1983.22 233.779 1980.3 232.322C1977.39 230.864 1973.8 230.136 1969.55 230.136H1955.51V325H1927.03ZM2152.01 266.091C2152.01 279.054 2149.52 290.042 2144.54 299.055C2139.55 308.067 2132.8 314.913 2124.29 319.592C2115.81 324.271 2106.3 326.611 2095.75 326.611C2085.17 326.611 2075.64 324.252 2067.16 319.535C2058.68 314.817 2051.95 307.972 2046.97 298.997C2042.02 289.984 2039.55 279.016 2039.55 266.091C2039.55 253.128 2042.02 242.14 2046.97 233.127C2051.95 224.114 2058.68 217.268 2067.16 212.589C2075.64 207.911 2085.17 205.571 2095.75 205.571C2106.3 205.571 2115.81 207.911 2124.29 212.589C2132.8 217.268 2139.55 224.114 2144.54 233.127C2149.52 242.14 2152.01 253.128 2152.01 266.091ZM2122.9 266.091C2122.9 258.42 2121.81 251.939 2119.63 246.646C2117.48 241.354 2114.37 237.346 2110.31 234.623C2106.28 231.9 2101.43 230.538 2095.75 230.538C2090.11 230.538 2085.26 231.9 2081.2 234.623C2077.13 237.346 2074.01 241.354 2071.82 246.646C2069.67 251.939 2068.6 258.42 2068.6 266.091C2068.6 273.761 2069.67 280.243 2071.82 285.536C2074.01 290.828 2077.13 294.836 2081.2 297.559C2085.26 300.282 2090.11 301.643 2095.75 301.643C2101.43 301.643 2106.28 300.282 2110.31 297.559C2114.37 294.836 2117.48 290.828 2119.63 285.536C2121.81 280.243 2122.9 273.761 2122.9 266.091ZM2182.67 207.182H2210.22V244.69C2210.22 248.794 2210.93 252.112 2212.35 254.643C2213.81 257.174 2216.13 259.034 2219.31 260.223C2222.49 261.374 2226.69 261.949 2231.91 261.949C2233.33 261.949 2235.21 261.911 2237.55 261.834C2239.89 261.719 2242.34 261.565 2244.91 261.374C2247.52 261.182 2249.94 260.933 2252.16 260.626C2254.42 260.319 2256.19 259.974 2257.45 259.59V281.509C2256.11 281.93 2254.27 282.314 2251.93 282.659C2249.59 283.004 2247.1 283.292 2244.45 283.522C2241.8 283.752 2239.35 283.925 2237.09 284.04C2234.82 284.155 2233.1 284.212 2231.91 284.212C2222.01 284.212 2213.37 282.812 2205.96 280.013C2198.56 277.175 2192.83 272.841 2188.76 267.011C2184.7 261.182 2182.67 253.741 2182.67 244.69V207.182ZM2252.27 207.182H2280V325H2252.27V207.182ZM2383.37 325L2346.32 276.101H2339.88V325H2311.4V207.182H2339.88V252.917H2344.42L2380.9 207.182H2416.51L2371.12 262.812L2418.87 325H2383.37ZM2452.26 326.611V304.06H2458.3C2461.56 304.06 2464.17 303.734 2466.13 303.082C2468.12 302.391 2469.68 301.298 2470.79 299.803C2471.94 298.307 2472.9 296.312 2473.66 293.82L2474.99 290.195L2431.5 207.182H2460.72L2486.9 260.108L2507.95 207.182H2536.72L2496.22 300.55C2494.11 305.153 2491.61 309.448 2488.74 313.437C2485.86 317.387 2482.24 320.57 2477.86 322.987C2473.53 325.403 2468.06 326.611 2461.47 326.611H2452.26Z" fill="#747474"/>
</svg>
