<svg width="106" height="170" viewBox="0 0 106 170" fill="none" xmlns="http://www.w3.org/2000/svg">
<path d="M99.2468 60.2207L63.1851 68.1068L80.8174 6.36115C82.3493 0.994683 75.1737 -2.44319 71.9563 2.12747L1.61812 102.06C-1.0266 105.817 2.4209 110.86 6.88101 109.762L39.0134 101.852L21.4386 163.656C19.9243 168.982 26.9741 172.376 30.2293 167.984L104.312 68.052C107.046 64.3635 103.731 59.2407 99.2468 60.2207V60.2207ZM38.4852 140.122L50.9383 96.3282C51.9798 92.6666 48.6763 89.2151 44.9579 90.1304L17.4227 96.9089L63.1566 31.9336L51.3197 73.3846C50.2895 76.9921 53.4847 80.4247 57.1723 79.6169L88.4016 72.7877L38.4852 140.122Z" fill="url(#paint0_linear_8_17)"/>
<defs>
<linearGradient id="paint0_linear_8_17" x1="53.0004" y1="6.10352e-05" x2="53.0004" y2="170" gradientUnits="userSpaceOnUse">
<stop stop-color="white"/>
<stop offset="1" stop-color="white"/>
</linearGradient>
</defs>
</svg>
