<svg width="512" height="512" viewBox="0 0 512 512" fill="none" xmlns="http://www.w3.org/2000/svg">
<g clip-path="url(#clip0)">
<path d="M261.569 0C152.629 0 64 88.629 64 197.568C64 235.186 74.251 275.124 94.467 316.271C110.497 348.898 132.809 382.382 160.784 415.792C208.275 472.513 255.012 508.907 256.978 510.43C258.329 511.475 259.95 511.998 261.569 511.998C263.188 511.998 264.809 511.475 266.16 510.43C268.127 508.908 314.863 472.513 362.354 415.792C390.328 382.381 412.641 348.897 428.671 316.271C448.887 275.124 459.138 235.186 459.138 197.568C459.138 88.629 370.509 0 261.569 0ZM261.569 129.263C299.232 129.263 329.874 159.904 329.874 197.568C329.874 235.231 299.233 265.873 261.569 265.873C223.905 265.873 193.264 235.232 193.264 197.568C193.264 159.904 223.905 129.263 261.569 129.263Z" fill="url(#paint0_linear)"/>
</g>
<defs>
<linearGradient id="paint0_linear" x1="261.569" y1="0" x2="261.569" y2="511.998" gradientUnits="userSpaceOnUse">
<stop stop-color="#D375FF"/>
<stop offset="1" stop-color="#799EFF"/>
</linearGradient>
<clipPath id="clip0">
<rect width="511.999" height="511.999" fill="white"/>
</clipPath>
</defs>
</svg>
