<svg width="624" height="218" viewBox="0 0 624 218" fill="none" xmlns="http://www.w3.org/2000/svg">
<rect x="161" width="141" height="95" rx="10" fill="#F8F8F8"/>
<path d="M241.7 28.3H220.9V65.6H241.7V28.3Z" fill="#FF5A00"/>
<path d="M222.3 46.9C222.3 39.3 225.9 32.6 231.3 28.2C227.3 25 222.2 23.1 216.7 23.1C203.6 23.1 193 33.7 193 46.8C193 59.9 203.6 70.5 216.7 70.5C222.2 70.5 227.3 68.6 231.3 65.4C225.9 61.3 222.3 54.5 222.3 46.9Z" fill="#EB001B"/>
<path d="M269.7 46.9C269.7 60 259.1 70.6 246 70.6C240.5 70.6 235.4 68.7 231.4 65.5C236.9 61.1 240.4 54.4 240.4 46.8C240.4 39.2 236.8 32.5 231.4 28.1C235.4 24.9 240.5 23 246 23C259.1 23.2 269.7 33.9 269.7 46.9Z" fill="#F79E1B"/>
<rect x="322" width="141" height="95" rx="10" fill="#F8F8F8"/>
<path d="M359.064 31.5327C357.813 32.9887 355.889 34.1535 353.966 33.9594C353.677 32.0181 354.639 29.8826 355.793 28.6208C357.044 27.1648 359.16 26.0971 360.891 26C361.084 28.0384 360.314 29.9797 359.064 31.5327ZM360.795 34.3476C358.006 34.1535 355.601 35.9977 354.254 35.9977C352.907 35.9977 350.887 34.4447 348.579 34.5418C345.693 34.5418 343 36.2889 341.461 38.9097C338.383 44.1512 340.691 52.0135 343.577 56.2844C345.02 58.4199 346.751 60.7494 349.06 60.6524C351.176 60.5553 352.042 59.1964 354.639 59.1964C357.236 59.1964 358.006 60.6524 360.314 60.5553C362.623 60.5553 364.162 58.4199 365.605 56.2844C367.24 53.8578 367.913 51.5282 367.913 51.4311C367.913 51.4311 363.392 49.684 363.296 44.4424C363.296 40.0745 366.855 37.9391 367.047 37.842C365.124 34.7359 361.949 34.4447 360.795 34.3476ZM377.147 28.4266V60.3612H382.053V49.3928H388.883C395.135 49.3928 399.464 45.1219 399.464 38.9097C399.464 32.6975 395.135 28.4266 388.979 28.4266H377.147ZM382.053 32.6005H387.728C391.961 32.6005 394.462 34.93 394.462 38.9097C394.462 42.8894 392.057 45.219 387.728 45.219H382.053V32.6005ZM408.409 60.5553C411.488 60.5553 414.373 59.0023 415.624 56.4786H415.72V60.2641H420.241V44.4424C420.241 39.8804 416.586 36.8713 411.007 36.8713C405.812 36.8713 401.965 39.8804 401.772 44.0542H406.197C406.582 42.1129 408.409 40.7539 410.814 40.7539C413.796 40.7539 415.528 42.2099 415.528 44.7336V46.4808L409.371 46.8691C403.696 47.2573 400.618 49.5869 400.618 53.6637C400.618 57.8375 403.792 60.5553 408.409 60.5553ZM409.66 56.7697C407.063 56.7697 405.428 55.5079 405.428 53.5666C405.428 51.5282 407.063 50.3634 410.141 50.1693L415.624 49.781V51.6253C415.528 54.6343 413.027 56.7697 409.66 56.7697ZM426.301 69C431.11 69 433.323 67.1558 435.343 61.526L444 37.1625H438.998L433.227 55.9932H433.13L427.359 37.1625H422.261L430.533 60.3612L430.052 61.8172C429.283 64.2438 428.129 65.1174 425.916 65.1174C425.531 65.1174 424.762 65.1174 424.473 65.0203V68.8059C424.762 68.9029 425.916 69 426.301 69Z" fill="black"/>
<rect x="483" width="141" height="95" rx="10" fill="#F8F8F8"/>
<path d="M555.478 47.8793V59.8602H551.662V30.3074H561.779C564.175 30.2187 566.571 31.1949 568.258 32.8811C570.033 34.4785 571.009 36.6972 571.009 39.0934C571.098 41.4895 570.033 43.797 568.258 45.3944C566.483 47.0806 564.353 47.8793 561.779 47.8793H555.478ZM555.478 33.9461V44.2407H561.868C563.288 44.2407 564.619 43.7082 565.595 42.732C567.548 40.7796 567.636 37.5847 565.684 35.6322L565.595 35.5435C564.619 34.4785 563.288 33.9461 561.868 33.9461H555.478Z" fill="#5F6368"/>
<path d="M579.706 39.0046C582.546 39.0046 584.676 39.7146 586.362 41.2233C587.959 42.732 588.758 44.7732 588.758 47.3468V59.7714H585.12V56.9315H584.942C583.345 59.2389 581.303 60.3927 578.641 60.3927C576.422 60.3927 574.559 59.7714 573.05 58.4402C571.63 57.1978 570.743 55.4228 570.831 53.4704C570.831 51.3405 571.63 49.743 573.227 48.5006C574.825 47.2581 576.955 46.6369 579.528 46.6369C581.747 46.6369 583.611 47.0806 585.12 47.8793V46.9919C585.12 45.6607 584.587 44.5069 583.522 43.6195C582.546 42.732 581.215 42.1995 579.883 42.1995C577.754 42.1995 576.067 43.087 574.825 44.8619L571.453 42.732C573.405 40.2471 576.067 39.0046 579.706 39.0046ZM574.825 53.6479C574.825 54.6241 575.269 55.5116 576.067 56.1328C576.866 56.754 577.931 57.109 578.996 57.109C580.593 57.109 582.102 56.4878 583.256 55.3341C584.498 54.1804 585.12 52.7604 585.12 51.163C583.966 50.1868 582.28 49.743 580.15 49.743C578.641 49.743 577.31 50.098 576.334 50.8967C575.357 51.6067 574.825 52.4942 574.825 53.6479Z" fill="#5F6368"/>
<path d="M609.525 39.6259L596.834 68.7349H592.929L597.633 58.529L589.291 39.6259H593.373L599.408 54.0916H599.497L605.354 39.6259H609.525Z" fill="#5F6368"/>
<path d="M540.214 45.3057C540.214 44.152 540.125 42.9982 539.947 41.8445H523.973V48.4118H533.114C532.759 50.5417 531.516 52.4054 529.741 53.5591V57.819H535.244C538.35 54.8016 540.214 50.453 540.214 45.3057Z" fill="#4285F4"/>
<path d="M523.884 61.8126C528.499 61.8126 532.315 60.3039 535.155 57.7303L529.653 53.4704C528.144 54.5354 526.192 55.0678 523.884 55.0678C519.447 55.0678 515.719 52.0504 514.388 48.0568H508.797V52.4054C511.637 58.2627 517.494 61.8126 523.884 61.8126Z" fill="#34A853"/>
<path d="M514.388 48.1456C513.678 46.0156 513.678 43.797 514.388 41.667V37.3184H508.797C506.401 42.1108 506.401 47.7018 508.797 52.4942L514.388 48.1456Z" fill="#FBBC04"/>
<path d="M523.884 34.656C526.28 34.656 528.676 35.5435 530.363 37.2297L535.155 32.4374C532.049 29.5974 528.055 28 523.795 28C517.406 28 511.548 31.6386 508.62 37.3184L514.211 41.667C515.719 37.6734 519.536 34.656 523.884 34.656Z" fill="#EA4335"/>
<rect width="141" height="95" rx="10" fill="#F8F8F8"/>
<path d="M59.2 31.6L46.4 62.5H38L31.7 37.8C31.3 36.3 31 35.8 29.8 35.1C27.3 33.9 24.7 33 22 32.5L22.2 31.6H35.7C37.5 31.6 39.1 33 39.3 34.8L42.6 52.6L50.8 31.6H59.2V31.6ZM92.1 52.3C92 58.7 86.6 62.9 78.3 62.8C75.3 62.9 72.3 62.3 69.5 61.2L71 54.4C73.5 55.8 76.3 56.4 79.1 56.4C81.4 56.4 83.9 55.4 83.9 53.4C83.9 52.1 82.8 51 79.8 49.6C76.8 48.1 72.8 45.7 72.9 41.2C73 35.3 78.5 31 86.3 31C88.8 31 91.4 31.5 93.7 32.4L92.3 38.9C89.9 37.7 87.2 37.3 84.5 37.5C82.2 37.8 81.1 39 81.1 40.1C80.9 43.7 92.1 44.2 92.1 52.3ZM112.7 62.4L111.7 57.8H101.5L99.9 62.4H91.6L103.5 33.8C104.1 32.4 105.4 31.5 106.9 31.5H113.7L120.1 62.4H112.7ZM103.8 51.5H110.4L108 40L103.8 51.5ZM70.5 31.6L64 62.5H56.1L62.6 31.6H70.5V31.6Z" fill="#161E6F"/>
<rect y="123" width="141" height="95" rx="10" fill="#F8F8F8"/>
<path d="M111.806 157H92.5355C93.6581 163.361 99.8323 169.348 106.568 169.348H121.91C122.097 168.787 122.097 167.852 122.097 167.29C122.097 161.677 117.419 157 111.806 157Z" fill="url(#paint0_linear_2_37)"/>
<path d="M94.2194 170.471V186H103.574V177.768H111.806C116.297 177.768 120.226 174.587 121.535 170.471H94.2194Z" fill="#4FAD50"/>
<path d="M61.2903 157V185.813H69.5226C69.5226 185.813 71.5807 185.813 72.7033 183.755C78.3162 172.716 80 169.348 80 169.348H81.1226V185.813H90.4775V157H82.2452C82.2452 157 80.1871 157.187 79.0645 159.058C74.3871 168.6 71.7678 173.465 71.7678 173.465H70.6452V157H61.2903Z" fill="#4FAD50"/>
<path d="M22 186V157.187H31.3548C31.3548 157.187 33.9742 157.187 35.471 161.303C39.2129 172.155 39.5871 173.652 39.5871 173.652C39.5871 173.652 40.3355 171.032 43.7032 161.303C45.2 157.187 47.8194 157.187 47.8194 157.187H57.1742V186H47.8194V170.471H46.6968L41.4581 186H37.342L32.1033 170.471H30.9807V186H22Z" fill="#4FAD50"/>
<rect x="161" y="123" width="141" height="95" rx="10" fill="#F8F8F8"/>
<path d="M247.005 178.992C247.955 179.399 248.363 180.757 248.363 181.436C248.499 182.523 248.227 183.066 247.82 183.066C247.412 183.066 246.869 182.659 246.326 181.708C245.782 180.757 245.511 179.806 245.782 179.263C246.19 178.992 246.597 178.856 247.005 178.992Z" fill="#F28A1A"/>
<path d="M241.436 183.202C241.98 183.202 242.659 183.474 243.338 184.017C244.424 184.967 244.832 186.054 244.288 186.869C244.017 187.276 243.338 187.548 242.794 187.548C242.115 187.548 241.436 187.276 241.029 186.869C239.942 185.918 239.671 184.56 240.35 183.745C240.486 183.474 240.893 183.202 241.436 183.202Z" fill="#F28A1A"/>
<path d="M228.534 193.931C214.409 193.931 203 182.523 203 168.534C203 154.544 214.409 143 228.534 143C242.659 143 254.067 154.409 254.067 168.534C254.067 173.287 252.709 177.769 250.536 181.572C250.4 181.708 250.264 181.708 250.264 181.436C249.314 175.189 245.511 171.793 240.078 170.707C239.535 170.571 239.535 170.299 240.214 170.299C241.98 170.163 244.288 170.163 245.647 170.435C245.782 169.756 245.782 169.077 245.782 168.534C245.782 159.298 238.177 151.692 228.941 151.692C219.706 151.692 212.1 159.298 212.1 168.534C212.1 177.769 219.706 185.375 228.941 185.375H229.756C229.484 183.881 229.349 182.387 229.484 180.757C229.484 179.671 229.756 179.535 230.163 180.35C232.472 184.424 235.868 187.955 242.387 189.449C247.684 190.672 252.981 192.03 258.821 199.228C259.364 199.907 258.549 200.586 258.006 200.043C252.166 194.882 246.869 193.117 241.98 193.117C235.868 193.252 232.201 193.931 228.534 193.931Z" fill="#F28A1A"/>
<rect x="322" y="123" width="141" height="95" rx="10" fill="#F8F8F8"/>
<path d="M421.418 171.24C421.474 187.302 408.498 200.369 392.435 200.424C376.377 200.48 363.31 187.503 363.256 171.441C363.197 155.378 376.173 142.31 392.232 142.255C408.295 142.198 421.362 155.177 421.418 171.24Z" fill="url(#paint1_linear_2_37)"/>
<path d="M403.75 164.176C403.362 160.281 399.994 158.987 395.746 158.63L395.727 153.226L392.438 153.238L392.456 158.499C391.592 158.502 390.708 158.523 389.83 158.543L389.812 153.247L386.524 153.258L386.542 158.661C385.829 158.678 385.13 158.693 384.448 158.696L384.448 158.679L379.911 158.694L379.924 162.207C379.924 162.207 382.353 162.152 382.312 162.197C383.645 162.193 384.081 162.965 384.21 163.632L384.231 169.788C384.323 169.789 384.443 169.792 384.579 169.81C384.47 169.811 384.352 169.81 384.232 169.812L384.261 178.436C384.204 178.856 383.96 179.525 383.029 179.53C383.071 179.567 380.638 179.538 380.638 179.538L379.998 183.469L384.279 183.454C385.075 183.452 385.859 183.463 386.629 183.465L386.649 188.931L389.935 188.92L389.916 183.512C390.818 183.527 391.692 183.531 392.544 183.528L392.561 188.911L395.851 188.899L395.833 183.443C401.362 183.106 405.228 181.699 405.69 176.504C406.064 172.321 404.09 170.462 400.948 169.719C402.852 168.741 404.039 167.026 403.75 164.176V164.176ZM399.188 175.879C399.204 179.964 392.209 179.524 389.98 179.534L389.955 172.292C392.185 172.285 399.174 171.619 399.188 175.879ZM397.623 165.668C397.635 169.384 391.8 168.97 389.943 168.977L389.921 162.409C391.778 162.402 397.609 161.792 397.623 165.668V165.668Z" fill="white"/>
<rect x="483" y="123" width="141" height="95" rx="10" fill="#F8F8F8"/>
<path fill-rule="evenodd" clip-rule="evenodd" d="M583 185.658C583 189.161 580.178 192 576.696 192H531.304C527.822 192 525 189.161 525 185.658V148.872C525 146.07 527.258 143.798 530.043 143.798H555.476L565.688 140.076C566.335 139.839 567.051 140.175 567.287 140.823L568.363 143.798H572.913C575.698 143.798 577.957 146.07 577.957 148.872V151.409C580.742 151.409 583 153.681 583 156.483V185.658ZM530.043 146.335C528.651 146.335 527.522 147.471 527.522 148.872C527.522 150.272 528.651 151.409 530.043 151.409H534.387H534.625C534.642 151.402 534.652 151.388 534.668 151.382L548.515 146.335H530.043ZM566.707 146.564L565.368 142.855H565.367L562.781 143.798H562.784L555.832 146.335H555.819L541.901 151.409H568.457L566.707 146.564ZM575.435 148.872C575.435 147.471 574.305 146.335 572.913 146.335H569.278L571.111 151.409H575.435V148.872ZM577.957 153.946H530.043C529.121 153.946 528.266 153.678 527.522 153.242V185.658C527.522 187.759 529.216 189.463 531.304 189.463H576.696C578.785 189.463 580.478 187.759 580.478 185.658V176.778H575.435C572.65 176.778 570.391 174.506 570.391 171.704C570.391 168.902 572.65 166.63 575.435 166.63H580.478V156.483C580.478 155.082 579.349 153.946 577.957 153.946ZM580.478 174.241V169.167H575.435C574.043 169.167 572.913 170.304 572.913 171.704C572.913 173.105 574.043 174.241 575.435 174.241H580.478ZM575.435 170.436H577.957V172.973H575.435V170.436Z" fill="#1DAB6F"/>
<defs>
<linearGradient id="paint0_linear_2_37" x1="92.5022" y1="163.263" x2="122.031" y2="163.263" gradientUnits="userSpaceOnUse">
<stop stop-color="#27B1E6"/>
<stop offset="1" stop-color="#148ACA"/>
</linearGradient>
<linearGradient id="paint1_linear_2_37" x1="357" y1="150.272" x2="371.273" y2="206.677" gradientUnits="userSpaceOnUse">
<stop stop-color="#F9AA4B"/>
<stop offset="1" stop-color="#F7931A"/>
</linearGradient>
</defs>
</svg>
