<svg width="256" height="256" viewBox="0 0 256 256" fill="none" xmlns="http://www.w3.org/2000/svg">
<path d="M109.083 183.336C107.562 183.336 106.083 182.794 104.917 181.795L67.087 149.369C64.404 147.068 64.093 143.028 66.393 140.344C68.693 137.662 72.734 137.352 75.418 139.651L108.15 167.709L179.692 75.728C181.863 72.939 185.88 72.433 188.673 74.606C191.462 76.776 191.965 80.797 189.795 83.587L114.132 180.866C113.057 182.248 111.465 183.129 109.722 183.304C109.511 183.325 109.297 183.336 109.083 183.336ZM256 128C256 57.42 198.58 0 128 0C57.42 0 0 57.42 0 128C0 198.58 57.42 256 128 256C198.58 256 256 198.58 256 128ZM243.2 128C243.2 191.521 191.521 243.2 128 243.2C64.478 243.2 12.8 191.521 12.8 128C12.8 64.478 64.478 12.8 128 12.8C191.521 12.8 243.2 64.478 243.2 128Z" fill="#1CC63A"/>
</svg>
